<svg width="900" height="1700" viewBox="0 0 900 1700" xmlns="http://www.w3.org/2000/svg">
  <defs>
    <!-- Gradients -->
    <linearGradient id="bgGrad" x1="0" y1="0" x2="0" y2="1">
      <stop offset="0%" stop-color="#0f1117"/>
      <stop offset="100%" stop-color="#1a1d2e"/>
    </linearGradient>
    <linearGradient id="startGrad" x1="0" y1="0" x2="1" y2="0">
      <stop offset="0%" stop-color="#6c63ff"/>
      <stop offset="100%" stop-color="#a78bfa"/>
    </linearGradient>
    <linearGradient id="loginGrad" x1="0" y1="0" x2="1" y2="0">
      <stop offset="0%" stop-color="#0ea5e9"/>
      <stop offset="100%" stop-color="#38bdf8"/>
    </linearGradient>
    <linearGradient id="navGrad" x1="0" y1="0" x2="1" y2="0">
      <stop offset="0%" stop-color="#10b981"/>
      <stop offset="100%" stop-color="#34d399"/>
    </linearGradient>
    <linearGradient id="solveGrad" x1="0" y1="0" x2="1" y2="0">
      <stop offset="0%" stop-color="#f59e0b"/>
      <stop offset="100%" stop-color="#fbbf24"/>
    </linearGradient>
    <linearGradient id="aiGrad" x1="0" y1="0" x2="1" y2="0">
      <stop offset="0%" stop-color="#8b5cf6"/>
      <stop offset="100%" stop-color="#c084fc"/>
    </linearGradient>
    <linearGradient id="typeGrad" x1="0" y1="0" x2="1" y2="0">
      <stop offset="0%" stop-color="#ec4899"/>
      <stop offset="100%" stop-color="#f472b6"/>
    </linearGradient>
    <linearGradient id="captchaGrad" x1="0" y1="0" x2="1" y2="0">
      <stop offset="0%" stop-color="#ef4444"/>
      <stop offset="100%" stop-color="#f87171"/>
    </linearGradient>
    <linearGradient id="endGrad" x1="0" y1="0" x2="1" y2="0">
      <stop offset="0%" stop-color="#6c63ff"/>
      <stop offset="100%" stop-color="#a78bfa"/>
    </linearGradient>
    <!-- Glow filter -->
    <filter id="glow" x="-20%" y="-20%" width="140%" height="140%">
      <feGaussianBlur in="SourceGraphic" stdDeviation="3" result="blur"/>
      <feComposite in="SourceGraphic" in2="blur" operator="over"/>
    </filter>
    <filter id="softglow">
      <feGaussianBlur in="SourceGraphic" stdDeviation="5" result="blur"/>
      <feComposite in="SourceGraphic" in2="blur" operator="over"/>
    </filter>
    <!-- Arrow marker -->
    <marker id="arrow" markerWidth="10" markerHeight="7" refX="9" refY="3.5" orient="auto">
      <polygon points="0 0, 10 3.5, 0 7" fill="#4b5563"/>
    </marker>
    <marker id="arrowBright" markerWidth="10" markerHeight="7" refX="9" refY="3.5" orient="auto">
      <polygon points="0 0, 10 3.5, 0 7" fill="#6c63ff"/>
    </marker>
    <marker id="arrowYes" markerWidth="10" markerHeight="7" refX="9" refY="3.5" orient="auto">
      <polygon points="0 0, 10 3.5, 0 7" fill="#10b981"/>
    </marker>
    <marker id="arrowNo" markerWidth="10" markerHeight="7" refX="9" refY="3.5" orient="auto">
      <polygon points="0 0, 10 3.5, 0 7" fill="#ef4444"/>
    </marker>
  </defs>

  <!-- Background -->
  <rect width="900" height="1700" fill="url(#bgGrad)" rx="16"/>

  <!-- Title -->
  <text x="450" y="40" text-anchor="middle" fill="#e2e8f0" font-size="22" font-weight="700" letter-spacing="1">🤖 Skillrack Complete Automation</text>
  <text x="450" y="62" text-anchor="middle" fill="#64748b" font-size="13">Selenium + AI Process Flow</text>
  <line x1="80" y1="74" x2="820" y2="74" stroke="#1e293b" stroke-width="1.5"/>

  <!-- ══════ BLOCK 1: START ══════ -->
  <rect x="325" y="90" width="250" height="54" rx="27" fill="url(#startGrad)" filter="url(#glow)"/>
  <text x="450" y="117" text-anchor="middle" fill="white" font-size="14" font-weight="700">🚀 START</text>
  <text x="450" y="134" text-anchor="middle" fill="rgba(255,255,255,0.75)" font-size="11">test_main.py</text>

  <!-- arrow -->
  <line x1="450" y1="144" x2="450" y2="165" stroke="#4b5563" stroke-width="2" marker-end="url(#arrow)"/>

  <!-- ══════ BLOCK 2: CONFIG ══════ -->
  <rect x="295" y="166" width="310" height="52" rx="10" fill="#1e2740" stroke="#334155" stroke-width="1.5"/>
  <text x="315" y="187" fill="#94a3b8" font-size="12">⚙️</text>
  <text x="340" y="187" fill="#e2e8f0" font-size="13" font-weight="600">Load config.py</text>
  <text x="340" y="205" fill="#64748b" font-size="11">Credentials • Groq API Key • Browser Options</text>

  <line x1="450" y1="218" x2="450" y2="239" stroke="#4b5563" stroke-width="2" marker-end="url(#arrow)"/>

  <!-- ══════ BLOCK 3: SELENIUM LAUNCH ══════ -->
  <rect x="270" y="240" width="360" height="52" rx="10" fill="#1e2740" stroke="#0ea5e9" stroke-width="1.5"/>
  <text x="296" y="261" fill="#38bdf8" font-size="12">🌐</text>
  <text x="320" y="261" fill="#e2e8f0" font-size="13" font-weight="600">Launch Selenium WebDriver</text>
  <text x="296" y="280" fill="#64748b" font-size="11">Chrome Browser + Floating Overlay UI (overlay2.py / tkinter)</text>

  <line x1="450" y1="292" x2="450" y2="313" stroke="#4b5563" stroke-width="2" marker-end="url(#arrow)"/>

  <!-- ══════ BLOCK 4: LOGIN ══════ -->
  <rect x="270" y="314" width="360" height="64" rx="10" fill="#1e2740" stroke="#0ea5e9" stroke-width="1.8" filter="url(#glow)"/>
  <text x="296" y="337" fill="#38bdf8" font-size="12">🔐</text>
  <text x="320" y="337" fill="#e2e8f0" font-size="13" font-weight="700">login.py — Authenticate</text>
  <text x="296" y="355" fill="#64748b" font-size="11">Navigate to skillrack.com/tutorprogram.xhtml</text>
  <text x="296" y="370" fill="#64748b" font-size="11">Fill j_username / j_password → Click Login</text>

  <line x1="450" y1="378" x2="450" y2="399" stroke="#4b5563" stroke-width="2" marker-end="url(#arrow)"/>

  <!-- ══════ BLOCK 5: STD NAVIGATION ══════ -->
  <rect x="270" y="400" width="360" height="64" rx="10" fill="#1e2740" stroke="#10b981" stroke-width="1.8"/>
  <text x="296" y="423" fill="#34d399" font-size="12">🧭</text>
  <text x="320" y="423" fill="#e2e8f0" font-size="13" font-weight="700">standard_navigation() — login.py</text>
  <text x="296" y="442" fill="#64748b" font-size="11">Profile → Tracks Home → Level 1</text>
  <text x="296" y="457" fill="#64748b" font-size="11">→ Code Tutor (CODETUTOR)</text>

  <line x1="450" y1="464" x2="450" y2="485" stroke="#4b5563" stroke-width="2" marker-end="url(#arrow)"/>

  <!-- ══════ BLOCK 6: KEYBOARD NAVIGATION 3-LEVEL ══════ -->
  <!-- Group box -->
  <rect x="60" y="486" width="780" height="168" rx="14" fill="#111827" stroke="#1e293b" stroke-width="1.5" stroke-dasharray="6,3"/>
  <text x="82" y="506" fill="#475569" font-size="11" font-style="italic">navigation.py — navigate_code_editor()</text>

  <!-- Level 1 -->
  <rect x="90" y="514" width="220" height="54" rx="10" fill="#1e2740" stroke="#10b981" stroke-width="1.5"/>
  <text x="200" y="535" text-anchor="middle" fill="#34d399" font-size="12" font-weight="700">Key Press [0–9]</text>
  <text x="200" y="552" text-anchor="middle" fill="#94a3b8" font-size="11">Level 1: Select Language</text>
  <text x="200" y="565" text-anchor="middle" fill="#64748b" font-size="10">C / Java / Python3 / C++ / SQL</text>

  <!-- arrow between levels -->
  <line x1="310" y1="541" x2="338" y2="541" stroke="#334155" stroke-width="1.5" marker-end="url(#arrow)"/>

  <!-- Level 2 -->
  <rect x="340" y="514" width="210" height="54" rx="10" fill="#1e2740" stroke="#10b981" stroke-width="1.5"/>
  <text x="445" y="535" text-anchor="middle" fill="#34d399" font-size="12" font-weight="700">Key Press [0–9]</text>
  <text x="445" y="552" text-anchor="middle" fill="#94a3b8" font-size="11">Level 2: Select Topic</text>
  <text x="445" y="565" text-anchor="middle" fill="#64748b" font-size="10">Inner topic / subtopic</text>

  <line x1="550" y1="541" x2="578" y2="541" stroke="#334155" stroke-width="1.5" marker-end="url(#arrow)"/>

  <!-- Level 3 -->
  <rect x="580" y="514" width="220" height="54" rx="10" fill="#1e2740" stroke="#10b981" stroke-width="1.5"/>
  <text x="690" y="535" text-anchor="middle" fill="#34d399" font-size="12" font-weight="700">Key Press [0–9]</text>
  <text x="690" y="552" text-anchor="middle" fill="#94a3b8" font-size="11">Level 3: Select Problem</text>
  <text x="690" y="565" text-anchor="middle" fill="#64748b" font-size="10">Individual problem listing</text>

  <!-- global IDs note -->
  <text x="450" y="600" text-anchor="middle" fill="#475569" font-size="10.5">Sets global: AI_response_language · solution_box_class · Top/Bottom_code_element_id · description_text_id</text>

  <!-- section label bottom -->
  <text x="450" y="645" text-anchor="middle" fill="#475569" font-size="10.5" font-style="italic">▼ program_solution_algorithm() begins</text>

  <line x1="450" y1="654" x2="450" y2="675" stroke="#4b5563" stroke-width="2" marker-end="url(#arrow)"/>

  <!-- ══════ DECISION: HAS VIEW SOLUTION BUTTON? ══════ -->
  <polygon points="450,676 620,720 450,764 280,720" fill="#1e2d1e" stroke="#10b981" stroke-width="2"/>
  <text x="450" y="714" text-anchor="middle" fill="#e2e8f0" font-size="13" font-weight="700">Has View Solution</text>
  <text x="450" y="731" text-anchor="middle" fill="#e2e8f0" font-size="13" font-weight="700">Button?</text>

  <!-- YES branch label -->
  <text x="640" y="718" fill="#10b981" font-size="12" font-weight="700">YES</text>
  <!-- NO branch label -->
  <text x="270" y="718" fill="#ef4444" font-size="12" font-weight="700">NO</text>

  <!-- YES branch: right arrow → extract solution -->
  <line x1="620" y1="720" x2="680" y2="720" stroke="#10b981" stroke-width="2" marker-end="url(#arrowYes)"/>

  <!-- NO branch: left arrow → dummy code -->
  <line x1="280" y1="720" x2="220" y2="720" stroke="#ef4444" stroke-width="2" marker-end="url(#arrowNo)"/>

  <!-- ══════ YES PATH ══════ -->
  <rect x="682" y="692" width="188" height="56" rx="10" fill="#1e2740" stroke="#10b981" stroke-width="1.5"/>
  <text x="776" y="716" text-anchor="middle" fill="#34d399" font-size="12" font-weight="700">Extract Solution</text>
  <text x="776" y="733" text-anchor="middle" fill="#64748b" font-size="10.5">Click btn → BeautifulSoup</text>
  <text x="776" y="745" text-anchor="middle" fill="#64748b" font-size="10.5">Parse pre/p tags</text>

  <!-- down from extract -->
  <line x1="776" y1="748" x2="776" y2="768" stroke="#4b5563" stroke-width="1.5" marker-end="url(#arrow)"/>

  <!-- decision: top/bottom? -->
  <polygon points="776,769 876,800 776,831 676,800" fill="#2d1e2d" stroke="#8b5cf6" stroke-width="1.5"/>
  <text x="776" y="797" text-anchor="middle" fill="#e2e8f0" font-size="11">Top/Bottom</text>
  <text x="776" y="812" text-anchor="middle" fill="#e2e8f0" font-size="11">Sections?</text>
  <text x="882" y="800" fill="#10b981" font-size="11" font-weight="600">YES</text>
  <text x="686" y="800" fill="#ef4444" font-size="11" font-weight="600">NO</text>

  <!-- yes → AI -->
  <line x1="876" y1="800" x2="900" y2="800" stroke="#10b981" stroke-width="1.5"/>
  <!-- AI box right side — we'll bring both paths down to typing -->

  <!-- NO → type extracted directly -->
  <line x1="676" y1="800" x2="650" y2="800" stroke="#ef4444" stroke-width="1.5"/>

  <!-- ══════ NO PATH ══════ -->
  <rect x="32" y="692" width="188" height="56" rx="10" fill="#1e2740" stroke="#ef4444" stroke-width="1.5"/>
  <text x="126" y="714" text-anchor="middle" fill="#f87171" font-size="12" font-weight="700">Run Dummy Code</text>
  <text x="126" y="731" text-anchor="middle" fill="#64748b" font-size="10.5">print('hello world!')</text>
  <text x="126" y="744" text-anchor="middle" fill="#64748b" font-size="10.5">Click Run ×2 to unlock</text>

  <line x1="126" y1="748" x2="126" y2="768" stroke="#4b5563" stroke-width="1.5" marker-end="url(#arrow)"/>

  <!-- decision: solution btn found? -->
  <polygon points="126,769 226,800 126,831 26,800" fill="#2d1e1e" stroke="#ef4444" stroke-width="1.5"/>
  <text x="126" y="797" text-anchor="middle" fill="#e2e8f0" font-size="11">Solution btn</text>
  <text x="126" y="812" text-anchor="middle" fill="#e2e8f0" font-size="11">Found?</text>

  <text x="232" y="800" fill="#10b981" font-size="11" font-weight="600">YES</text>
  <text x="5" y="800" fill="#ef4444" font-size="11" font-weight="600">NO</text>

  <!-- YES from no-solution → extract and continue via center -->
  <line x1="226" y1="800" x2="260" y2="800" stroke="#10b981" stroke-width="1.5"/>
  <line x1="260" y1="800" x2="260" y2="876" stroke="#10b981" stroke-width="1.5" marker-end="url(#arrow)"/>

  <!-- NO from no-solution → pure AI (go down) -->
  <line x1="26" y1="800" x2="26" y2="876" stroke="#ef4444" stroke-width="1.5"/>
  <line x1="26" y1="876" x2="96" y2="876" stroke="#ef4444" stroke-width="1.5" marker-end="url(#arrowNo)"/>

  <!-- ══════ AI GENERATION BOX ══════ -->
  <rect x="98" y="856" width="210" height="60" rx="10" fill="#2d1a40" stroke="#8b5cf6" stroke-width="1.8" filter="url(#glow)"/>
  <text x="203" y="880" text-anchor="middle" fill="#c084fc" font-size="12" font-weight="700">🤖 AI Response — apicall.py</text>
  <text x="203" y="896" text-anchor="middle" fill="#94a3b8" font-size="10.5">Groq API • qwen-2.5-32b</text>
  <text x="203" y="908" text-anchor="middle" fill="#64748b" font-size="10">desc + top + bottom + solution → code</text>

  <!-- from YES extract (right) going down to AI -->
  <line x1="650" y1="800" x2="610" y2="800" stroke="#ef4444" stroke-width="1.5"/>
  <line x1="610" y1="800" x2="610" y2="876" stroke="#ef4444" stroke-width="1.5"/>
  <line x1="610" y1="876" x2="450" y2="876" stroke="#ef4444" stroke-width="1.5"/>
  <line x1="450" y1="876" x2="312" y2="876" stroke="#ef4444" stroke-width="1.5" marker-end="url(#arrowNo)"/>

  <!-- from YES top/bottom (far right) going down to AI -->
  <line x1="900" y1="800" x2="920" y2="800" stroke="#10b981" stroke-width="1.5"/>
  <line x1="920" y1="800" x2="920" y2="886" stroke="#10b981" stroke-width="1.5"/>
  <line x1="920" y1="886" x2="312" y2="886" stroke="#10b981" stroke-width="1.5" marker-end="url(#arrowYes)"/>

  <!-- ══════ CONVERGE: TYPE CODE ══════ -->
  <!-- From AI box down -->
  <line x1="203" y1="916" x2="203" y2="940" stroke="#4b5563" stroke-width="1.5"/>
  <line x1="203" y1="940" x2="450" y2="940" stroke="#4b5563" stroke-width="1.5"/>
  <!-- From "YES extract direct" (260,876 path) down to 940 -->
  <line x1="260" y1="876" x2="260" y2="940" stroke="#10b981" stroke-width="1.5"/>
  <line x1="260" y1="940" x2="449" y2="940" stroke="#10b981" stroke-width="1.5"/>
  <!-- Arrow down -->
  <line x1="450" y1="940" x2="450" y2="960" stroke="#4b5563" stroke-width="2" marker-end="url(#arrow)"/>

  <!-- ══════ BLOCK: TYPE CODE ══════ -->
  <rect x="270" y="961" width="360" height="76" rx="10" fill="#2d1a30" stroke="#ec4899" stroke-width="1.8" filter="url(#glow)"/>
  <text x="296" y="984" fill="#f472b6" font-size="12">⌨️</text>
  <text x="320" y="984" fill="#e2e8f0" font-size="13" font-weight="700">type_code.py — Human Typing</text>
  <text x="296" y="1002" fill="#94a3b8" font-size="10.5">Focus ACE editor → Ctrl+A → Delete existing code</text>
  <text x="296" y="1016" fill="#94a3b8" font-size="10.5">Human typing: 5% typo chance • random delays 50–200ms</text>
  <text x="296" y="1029" fill="#64748b" font-size="10">Select-to-end 20× to remove auto-inserted braces</text>

  <line x1="450" y1="1037" x2="450" y2="1058" stroke="#4b5563" stroke-width="2" marker-end="url(#arrow)"/>

  <!-- ══════ BLOCK: CLICK RUN ══════ -->
  <rect x="295" y="1059" width="310" height="52" rx="10" fill="#1e2740" stroke="#f59e0b" stroke-width="1.5"/>
  <text x="316" y="1080" fill="#fbbf24" font-size="12">▶️</text>
  <text x="340" y="1080" fill="#e2e8f0" font-size="13" font-weight="700">clicking_run_btn_once()</text>
  <text x="316" y="1099" fill="#64748b" font-size="11">Submit answer → Wait 7s for judge output</text>

  <line x1="450" y1="1111" x2="450" y2="1132" stroke="#4b5563" stroke-width="2" marker-end="url(#arrow)"/>

  <!-- ══════ DECISION: ERROR IN OUTPUT? ══════ -->
  <polygon points="450,1133 610,1168 450,1203 290,1168" fill="#2d2010" stroke="#f59e0b" stroke-width="2"/>
  <text x="450" y="1163" text-anchor="middle" fill="#e2e8f0" font-size="13" font-weight="700">Error in</text>
  <text x="450" y="1180" text-anchor="middle" fill="#e2e8f0" font-size="13" font-weight="700">Output?</text>
  <text x="620" y="1168" fill="#ef4444" font-size="12" font-weight="700">YES</text>
  <text x="268" y="1168" fill="#10b981" font-size="12" font-weight="700">NO</text>

  <!-- YES → manual check -->
  <line x1="610" y1="1168" x2="668" y2="1168" stroke="#ef4444" stroke-width="2" marker-end="url(#arrowNo)"/>

  <!-- NO → CAPTCHA -->
  <line x1="290" y1="1168" x2="232" y2="1168" stroke="#10b981" stroke-width="2" marker-end="url(#arrowYes)"/>

  <!-- ══════ YES: MANUAL VERIFY ══════ -->
  <rect x="670" y="1140" width="200" height="56" rx="10" fill="#2d1e1e" stroke="#ef4444" stroke-width="1.5"/>
  <text x="770" y="1162" text-anchor="middle" fill="#f87171" font-size="12" font-weight="700">🔍 Overlay: Verify</text>
  <text x="770" y="1178" text-anchor="middle" fill="#64748b" font-size="10.5">monitor_Proceed_button_present()</text>
  <text x="770" y="1190" text-anchor="middle" fill="#64748b" font-size="10">Polls every 5s for Proceed btn</text>

  <!-- ══════ NO: CAPTCHA ══════ -->
  <rect x="32" y="1140" width="200" height="56" rx="10" fill="#2d1a1a" stroke="#ef4444" stroke-width="1.8" filter="url(#glow)"/>
  <text x="132" y="1162" text-anchor="middle" fill="#f87171" font-size="12" font-weight="700">🔒 captcha_solver.py</text>
  <text x="132" y="1178" text-anchor="middle" fill="#94a3b8" font-size="10.5">Screenshot CAPTCHA → EasyOCR</text>
  <text x="132" y="1190" text-anchor="middle" fill="#64748b" font-size="10">Regex match → eval() → Input + Click</text>

  <!-- Both paths converge down -->
  <line x1="132" y1="1196" x2="132" y2="1256" stroke="#4b5563" stroke-width="1.5"/>
  <line x1="132" y1="1256" x2="350" y2="1256" stroke="#4b5563" stroke-width="1.5"/>

  <line x1="770" y1="1196" x2="770" y2="1256" stroke="#4b5563" stroke-width="1.5"/>
  <line x1="770" y1="1256" x2="552" y2="1256" stroke="#4b5563" stroke-width="1.5"/>

  <line x1="450" y1="1256" x2="450" y2="1276" stroke="#4b5563" stroke-width="2" marker-end="url(#arrow)"/>

  <!-- ══════ BLOCK: PROCEED ══════ -->
  <rect x="270" y="1277" width="360" height="52" rx="10" fill="#1e2740" stroke="#10b981" stroke-width="1.5"/>
  <text x="296" y="1298" fill="#34d399" font-size="12">✅</text>
  <text x="322" y="1298" fill="#e2e8f0" font-size="13" font-weight="700">Click Proceed Button</text>
  <text x="296" y="1317" fill="#64748b" font-size="11">Move to next problem in queue</text>

  <line x1="450" y1="1329" x2="450" y2="1350" stroke="#4b5563" stroke-width="2" marker-end="url(#arrow)"/>

  <!-- ══════ DECISION: MORE PROBLEMS? ══════ -->
  <polygon points="450,1351 590,1382 450,1413 310,1382" fill="#1e1e2d" stroke="#6c63ff" stroke-width="2"/>
  <text x="450" y="1378" text-anchor="middle" fill="#e2e8f0" font-size="13" font-weight="700">More</text>
  <text x="450" y="1395" text-anchor="middle" fill="#e2e8f0" font-size="13" font-weight="700">Problems?</text>
  <text x="600" y="1382" fill="#10b981" font-size="12" font-weight="700">YES</text>
  <text x="296" y="1382" fill="#ef4444" font-size="12" font-weight="700">NO</text>

  <!-- YES → loop back to nav level 3 -->
  <line x1="590" y1="1382" x2="850" y2="1382" stroke="#10b981" stroke-width="1.5"/>
  <line x1="850" y1="1382" x2="850" y2="541" stroke="#10b981" stroke-width="1.5"/>
  <line x1="850" y1="541" x2="802" y2="541" stroke="#10b981" stroke-width="1.5" marker-end="url(#arrowYes)"/>
  <text x="860" y="960" fill="#10b981" font-size="10.5" font-style="italic">Next Problem</text>

  <!-- NO → END -->
  <line x1="310" y1="1382" x2="232" y2="1382" stroke="#ef4444" stroke-width="1.5"/>
  <line x1="232" y1="1382" x2="232" y2="1470" stroke="#ef4444" stroke-width="1.5"/>
  <line x1="232" y1="1470" x2="324" y2="1470" stroke="#ef4444" stroke-width="1.5" marker-end="url(#arrowNo)"/>

  <!-- ══════ END ══════ -->
  <rect x="325" y="1448" width="250" height="54" rx="27" fill="url(#endGrad)" filter="url(#glow)"/>
  <text x="450" y="1475" text-anchor="middle" fill="white" font-size="14" font-weight="700">🏁 END / Session Complete</text>
  <text x="450" y="1493" text-anchor="middle" fill="rgba(255,255,255,0.7)" font-size="11">Browser closes • Overlay dismissed</text>

  <!-- ══════ LEGEND ══════ -->
  <rect x="60" y="1570" width="780" height="105" rx="12" fill="#111827" stroke="#1e293b" stroke-width="1"/>
  <text x="450" y="1592" text-anchor="middle" fill="#64748b" font-size="11" font-weight="600">LEGEND</text>

  <!-- legend items -->
  <rect x="90" y="1600" width="16" height="16" rx="4" fill="#0ea5e9" opacity="0.8"/>
  <text x="112" y="1613" fill="#94a3b8" font-size="11">Selenium / Browser</text>

  <rect x="230" y="1600" width="16" height="16" rx="4" fill="#10b981" opacity="0.8"/>
  <text x="252" y="1613" fill="#94a3b8" font-size="11">Navigation</text>

  <rect x="350" y="1600" width="16" height="16" rx="4" fill="#8b5cf6" opacity="0.8"/>
  <text x="372" y="1613" fill="#94a3b8" font-size="11">AI / Groq LLM</text>

  <rect x="470" y="1600" width="16" height="16" rx="4" fill="#ec4899" opacity="0.8"/>
  <text x="492" y="1613" fill="#94a3b8" font-size="11">Typing Simulation</text>

  <rect x="620" y="1600" width="16" height="16" rx="4" fill="#ef4444" opacity="0.8"/>
  <text x="642" y="1613" fill="#94a3b8" font-size="11">CAPTCHA / Error</text>

  <!-- row 2 -->
  <polygon points="98,1638 106,1625 114,1638" fill="#f59e0b" opacity="0.8"/>
  <text x="120" y="1638" fill="#94a3b8" font-size="11">Decision Point</text>

  <rect x="230" y="1627" width="16" height="10" rx="3" fill="#1e2740" stroke="#6c63ff" stroke-width="1.5"/>
  <text x="252" y="1638" fill="#94a3b8" font-size="11">Process Step</text>

  <line x1="350" y1="1632" x2="390" y2="1632" stroke="#10b981" stroke-width="2" stroke-dasharray="0"/>
  <text x="396" y="1638" fill="#94a3b8" font-size="11">YES path</text>

  <line x1="490" y1="1632" x2="530" y2="1632" stroke="#ef4444" stroke-width="2"/>
  <text x="536" y="1638" fill="#94a3b8" font-size="11">NO path</text>

  <line x1="620" y1="1632" x2="660" y2="1632" stroke="#4b5563" stroke-width="2"/>
  <text x="666" y="1638" fill="#94a3b8" font-size="11">Normal flow</text>

  <!-- watermark -->
  <text x="450" y="1690" text-anchor="middle" fill="#1e293b" font-size="11">github.com/mahe115/Skillrack-Complete-Automation</text>
</svg>